<?xml version='1.0' encoding='utf-8'?>
<svg width="83.586012mm" height="81.771873mm" viewBox="-41.793006 -44.262147 83.586012 81.771873" version="1.1" xmlns="http://www.w3.org/2000/svg">
  <g transform="scale(1,-1)" stroke-linecap="round">
    <g fill="none" stroke="rgb(25,25,25)" stroke-width="0.35" id="visible">
      <line x1="-13.368478" y1="-10.945983" x2="-13.368478" y2="9.361945" />
      <path d="M 12.387695,31.442396 A 20.0,15.022946591355815 -118.29915258396157 0,1 -13.368478,9.361945" />
      <path d="M 3.229163,7.470213 A 7.0,5.2580313069745355 -118.29915258396157 0,1 8.395601,17.06567" />
      <line x1="-36.618006" y1="-1.197109" x2="-26.736957" y2="-6.517317" />
      <path d="M -26.736957,-6.517317 A 3.0,1.609601420502409 105.36063525956868 0,1 -25.942276,-6.640887" />
      <path d="M -25.942276,-6.640887 A 3.0,1.609601420502409 105.36063525956868 0,1 -24.993242,-4.686915" />
      <line x1="-36.618006" y1="-10.427986" x2="-36.618006" y2="-1.197109" />
      <line x1="-24.993242" y1="-4.686915" x2="-24.993242" y2="15.621014" />
      <line x1="-36.618006" y1="-10.427986" x2="4.068667" y2="-32.334726" />
      <line x1="-24.993242" y1="15.621014" x2="-19.18086" y2="12.49148" />
      <line x1="4.068667" y1="-32.334726" x2="4.068667" y2="-23.103849" />
      <line x1="-19.18086" y1="-7.816449" x2="-19.18086" y2="12.49148" />
      <line x1="-5.812382" y1="-17.783641" x2="4.068667" y2="-23.103849" />
      <path d="M -17.437146,-11.524572 A 3.0,1.609601420502409 -74.63936474043132 0,0 -19.18086,-7.816449" />
      <path d="M -7.556097,-14.075518 A 3.0,1.609601420502409 105.36063525956868 0,1 -5.812382,-17.783641" />
      <line x1="-17.437146" y1="-11.524572" x2="-15.112193" y2="-12.776386" />
      <line x1="-7.556097" y1="-14.075518" x2="-7.556097" y2="6.232411" />
      <path d="M -13.368478,-10.945983 A 3.0,1.609601420502409 -74.63936474043132 0,0 -14.317512,-12.899956" />
      <path d="M -14.317512,-12.899956 A 3.0,1.609601420502409 -74.63936474043132 0,0 -15.112193,-12.776386" />
      <line x1="-13.368478" y1="9.361945" x2="-7.556097" y2="6.232411" />
      <path d="M 24.993242,15.173938 A 20.0,15.022946591355815 -118.29915258396157 0,1 18.200077,28.312862" />
      <path d="M 18.200077,28.312862 A 20.0,15.022946591355815 -118.29915258396157 0,1 -7.556097,6.232411" />
      <line x1="36.618006" y1="-23.393199" x2="36.618006" y2="-14.162323" />
      <line x1="26.736957" y1="-8.842114" x2="36.618006" y2="-14.162323" />
      <path d="M 24.993242,-5.133991 A 3.0,1.609601420502409 105.36063525956868 0,1 26.736957,-8.842114" />
      <line x1="24.993242" y1="-5.133991" x2="24.993242" y2="15.173938" />
      <path d="M 8.718573,4.241561 A 7.0,5.2580313069745355 -118.29915258396157 0,1 12.037099,16.866565" />
      <path d="M 12.037099,16.866565 A 7.0,5.2580313069745355 -118.29915258396157 0,1 5.400047,4.539784" />
      <path d="M 5.400047,4.539784 A 7.0,5.2580313069745355 -118.29915258396157 0,1 8.718573,4.241561" />
      <line x1="-36.618006" y1="-1.197109" x2="-24.993242" y2="1.996293" />
      <path d="M -24.993242,-0.839448 A 4.0,1.5383584154922898 1.3981846995045026e-15 0,1 -26.66829,-2.091262" />
      <path d="M -26.66829,-2.091262 A 4.0,1.5383584154922898 1.3981846995045026e-15 0,1 -24.993242,-3.343075" />
      <path d="M 0.762931,37.701465 A 20.0,15.022946591355815 -118.29915258396157 0,1 -24.993242,15.621014" />
      <line x1="4.068667" y1="-32.334726" x2="36.618006" y2="-23.393199" />
      <path d="M 9.249828,32.576879 A 20.0,15.022946591355815 -118.29915258396157 0,1 6.575313,34.57193" />
      <path d="M 6.575313,34.57193 A 20.0,15.022946591355815 -118.29915258396157 0,1 -19.18086,12.49148" />
      <line x1="4.068667" y1="-23.103849" x2="36.618006" y2="-14.162323" />
      <path d="M 8.718573,-18.990747 A 4.0,1.5383584154922898 1.3981846995045026e-15 0,1 10.39362,-17.738933" />
      <path d="M 10.39362,-17.738933 A 4.0,1.5383584154922898 1.3981846995045026e-15 0,1 2.39362,-17.738933" />
      <path d="M 2.39362,-17.738933 A 4.0,1.5383584154922898 1.3981846995045026e-15 0,1 8.718573,-18.990747" />
      <path d="M 24.993242,-14.519984 A 4.0,1.5383584154922898 1.3981846995045026e-15 0,1 26.66829,-13.26817" />
      <path d="M 26.66829,-13.26817 A 4.0,1.5383584154922898 1.3981846995045026e-15 0,1 18.66829,-13.26817" />
      <path d="M 18.66829,-13.26817 A 4.0,1.5383584154922898 1.3981846995045026e-15 0,1 24.993242,-14.519984" />
      <line x1="-15.112193" y1="-12.776386" x2="-13.697482" y2="-12.387755" />
      <line x1="-26.736957" y1="-6.517317" x2="-25.322245" y2="-6.128686" />
      <line x1="-19.18086" y1="-7.816449" x2="-13.368478" y2="-6.219748" />
      <line x1="-5.812382" y1="-17.783641" x2="26.736957" y2="-8.842114" />
      <line x1="-17.437146" y1="-11.524572" x2="-13.368478" y2="-10.406881" />
      <line x1="-7.556097" y1="-14.075518" x2="24.993242" y2="-5.133991" />
      <line x1="12.387695" y1="31.442396" x2="18.200077" y2="28.312862" />
      <line x1="0.762931" y1="37.701465" x2="6.575313" y2="34.57193" />
    </g>
    <g fill="none" stroke="rgb(153,153,153)" stroke-width="0.18" id="hidden" stroke-dasharray="2.16 0.54">
      <path d="M 19.18086,18.303472 A 20.0,15.022946591355815 -118.29915258396157 0,1 12.387695,31.442396" />
      <line x1="19.18086" y1="-2.004457" x2="19.18086" y2="18.303472" />
      <path d="M 2.906191,7.371095 A 7.0,5.2580313069745355 -118.29915258396157 0,1 3.229163,7.470213" />
      <path d="M 8.395601,17.06567 A 7.0,5.2580313069745355 -118.29915258396157 0,1 6.224717,19.996099" />
      <path d="M 6.224717,19.996099 A 7.0,5.2580313069745355 -118.29915258396157 0,1 -0.412335,7.669318" />
      <path d="M -0.412335,7.669318 A 7.0,5.2580313069745355 -118.29915258396157 0,1 2.906191,7.371095" />
      <path d="M 19.18086,-2.004457 A 3.0,1.609601420502409 -74.63936474043132 0,0 18.231827,-3.958429" />
      <path d="M 18.231827,-3.958429 A 3.0,1.609601420502409 -74.63936474043132 0,0 17.437146,-3.834859" />
      <line x1="19.18086" y1="18.303472" x2="24.993242" y2="15.173938" />
      <line x1="-4.068667" y1="7.744418" x2="5.812382" y2="2.424209" />
      <path d="M 5.812382,2.424209 A 3.0,1.609601420502409 105.36063525956868 0,1 6.607063,2.300639" />
      <path d="M 6.607063,2.300639 A 3.0,1.609601420502409 105.36063525956868 0,1 7.556097,4.254612" />
      <line x1="-4.068667" y1="-1.486459" x2="-4.068667" y2="7.744418" />
      <line x1="7.556097" y1="4.254612" x2="7.556097" y2="24.562541" />
      <line x1="-4.068667" y1="-1.486459" x2="36.618006" y2="-23.393199" />
      <line x1="7.556097" y1="24.562541" x2="13.368478" y2="21.433006" />
      <line x1="13.368478" y1="1.125078" x2="13.368478" y2="21.433006" />
      <path d="M 15.112193,-2.583046 A 3.0,1.609601420502409 -74.63936474043132 0,0 13.368478,1.125078" />
      <line x1="15.112193" y1="-2.583046" x2="17.437146" y2="-3.834859" />
      <line x1="-24.993242" y1="1.996293" x2="-4.068667" y2="7.744418" />
      <path d="M -20.343337,-3.343075 A 4.0,1.5383584154922898 1.3981846995045026e-15 0,1 -18.66829,-2.091262" />
      <path d="M -18.66829,-2.091262 A 4.0,1.5383584154922898 1.3981846995045026e-15 0,1 -24.993242,-0.839448" />
      <path d="M -24.993242,-3.343075 A 4.0,1.5383584154922898 1.3981846995045026e-15 0,1 -20.343337,-3.343075" />
      <path d="M -4.068667,1.127688 A 4.0,1.5383584154922898 1.3981846995045026e-15 0,1 -2.39362,2.379502" />
      <path d="M -2.39362,2.379502 A 4.0,1.5383584154922898 1.3981846995045026e-15 0,1 -10.39362,2.379502" />
      <path d="M -10.39362,2.379502 A 4.0,1.5383584154922898 1.3981846995045026e-15 0,1 -4.068667,1.127688" />
      <line x1="-36.618006" y1="-10.427986" x2="-4.068667" y2="-1.486459" />
      <path d="M 7.556097,24.562541 A 20.0,15.022946591355815 -118.29915258396157 0,1 0.762931,37.701465" />
      <path d="M -8.718573,13.630164 A 7.0,5.2580313069745355 -118.29915258396157 0,1 -5.400047,26.255168" />
      <path d="M -5.400047,26.255168 A 7.0,5.2580313069745355 -118.29915258396157 0,1 -12.037099,13.928387" />
      <path d="M -12.037099,13.928387 A 7.0,5.2580313069745355 -118.29915258396157 0,1 -8.718573,13.630164" />
      <path d="M -20.343337,-12.573952 A 4.0,1.5383584154922898 1.3981846995045026e-15 0,1 -18.66829,-11.322138" />
      <path d="M -18.66829,-11.322138 A 4.0,1.5383584154922898 1.3981846995045026e-15 0,1 -26.66829,-11.322138" />
      <path d="M -26.66829,-11.322138 A 4.0,1.5383584154922898 1.3981846995045026e-15 0,1 -20.343337,-12.573952" />
      <path d="M 8.718573,-28.221624 A 4.0,1.5383584154922898 1.3981846995045026e-15 0,1 10.39362,-26.96981" />
      <path d="M 10.39362,-26.96981 A 4.0,1.5383584154922898 1.3981846995045026e-15 0,1 2.39362,-26.96981" />
      <path d="M 2.39362,-26.96981 A 4.0,1.5383584154922898 1.3981846995045026e-15 0,1 8.718573,-28.221624" />
      <path d="M -4.068667,-8.103189 A 4.0,1.5383584154922898 1.3981846995045026e-15 0,1 -2.39362,-6.851375" />
      <path d="M -2.39362,-6.851375 A 4.0,1.5383584154922898 1.3981846995045026e-15 0,1 -10.39362,-6.851375" />
      <path d="M -10.39362,-6.851375 A 4.0,1.5383584154922898 1.3981846995045026e-15 0,1 -4.068667,-8.103189" />
      <path d="M 24.993242,-23.75086 A 4.0,1.5383584154922898 1.3981846995045026e-15 0,1 26.66829,-22.499047" />
      <path d="M 26.66829,-22.499047 A 4.0,1.5383584154922898 1.3981846995045026e-15 0,1 18.66829,-22.499047" />
      <path d="M 18.66829,-22.499047 A 4.0,1.5383584154922898 1.3981846995045026e-15 0,1 24.993242,-23.75086" />
      <path d="M 13.368478,21.433006 A 20.0,15.022946591355815 -118.29915258396157 0,1 9.249828,32.576879" />
      <path d="M -2.906191,10.500629 A 7.0,5.2580313069745355 -118.29915258396157 0,1 0.412335,23.125634" />
      <path d="M 0.412335,23.125634 A 7.000000245111224,5.258031491089176 -118.29915258396157 0,1 -6.224717,10.798852" />
      <path d="M -6.224717,10.798852 A 7.0,5.2580313069745355 -118.29915258396157 0,1 -2.906191,10.500629" />
      <line x1="-14.317512" y1="-12.899956" x2="18.231827" y2="-3.958429" />
      <line x1="-0.412335" y1="7.669318" x2="5.400047" y2="4.539784" />
      <line x1="6.224717" y1="19.996099" x2="12.037099" y2="16.866565" />
      <line x1="-25.942276" y1="-6.640887" x2="6.607063" y2="2.300639" />
      <line x1="-18.66829" y1="-11.322138" x2="-18.66829" y2="-2.091262" />
      <line x1="-26.66829" y1="-11.322138" x2="-26.66829" y2="-2.091262" />
      <line x1="-2.39362" y1="-6.851375" x2="-2.39362" y2="2.379502" />
      <line x1="-10.39362" y1="-6.851375" x2="-10.39362" y2="2.379502" />
      <line x1="-12.037099" y1="13.928387" x2="-6.224717" y2="10.798852" />
      <line x1="-5.400047" y1="26.255168" x2="0.412335" y2="23.125634" />
      <line x1="10.39362" y1="-26.96981" x2="10.39362" y2="-17.738933" />
      <line x1="2.39362" y1="-26.96981" x2="2.39362" y2="-17.738933" />
      <line x1="26.66829" y1="-22.499047" x2="26.66829" y2="-13.26817" />
      <line x1="18.66829" y1="-22.499047" x2="18.66829" y2="-13.26817" />
      <line x1="-13.368478" y1="-10.945983" x2="19.18086" y2="-2.004457" />
      <line x1="-13.697482" y1="-12.387755" x2="17.437146" y2="-3.834859" />
      <line x1="-25.322245" y1="-6.128686" x2="5.812382" y2="2.424209" />
      <line x1="-24.993242" y1="-4.686915" x2="7.556097" y2="4.254612" />
      <line x1="-13.368478" y1="-6.219748" x2="13.368478" y2="1.125078" />
      <line x1="-13.368478" y1="-10.406881" x2="15.112193" y2="-2.583046" />
    </g>
  </g>
</svg>